<svg version="1.1" id="Layer_1" xmlns="http://www.w3.org/2000/svg" xmlns:xlink="http://www.w3.org/1999/xlink" x="0px" y="0px"
	 width="100%" viewBox="0 0 500 500" enable-background="new 0 0 500 500" xml:space="preserve">
<path fill="#E11919" opacity="1.000000" stroke="none" 
	d="
M346.000000,501.000000 
	C230.666687,501.000000 115.833389,501.000000 1.000062,501.000000 
	C1.000041,334.333405 1.000041,167.666794 1.000021,1.000151 
	C167.666550,1.000101 334.333099,1.000101 500.999756,1.000050 
	C500.999817,167.666519 500.999817,334.333038 500.999908,500.999786 
	C449.500000,501.000000 398.000000,501.000000 346.000000,501.000000 
M274.083099,99.057716 
	C272.724487,98.370773 271.376587,97.114517 270.005524,97.088715 
	C260.678711,96.913170 251.347015,96.996826 242.016891,96.996796 
	C239.102448,96.996780 236.188004,96.996788 233.061249,96.996788 
	C233.061249,99.798157 233.063110,101.786133 233.060959,103.774117 
	C233.023788,138.095062 233.029785,172.416138 232.917480,206.736847 
	C232.889893,215.170227 231.205765,223.363449 226.929703,230.696793 
	C220.532822,241.667389 210.197159,245.355499 198.045959,246.429825 
	C172.416275,248.695801 155.475388,234.706909 155.064575,209.053314 
	C154.499084,173.741623 154.773239,138.416489 154.688629,103.097115 
	C154.683990,101.161102 154.688034,99.225075 154.688034,97.388718 
	C140.397644,97.388718 126.833572,97.388718 113.193619,97.388718 
	C113.127487,98.596581 113.043152,99.418213 113.043182,100.239853 
	C113.044289,133.061829 112.852188,165.885895 113.192848,198.704407 
	C113.285515,207.631180 114.179451,216.718918 116.095253,225.427063 
	C122.961205,256.635681 141.190628,277.542633 173.072906,284.668152 
	C194.320892,289.416992 215.092224,287.247284 235.051025,278.865326 
	C235.051025,280.797913 235.051025,282.730530 235.051025,284.744934 
	C248.191635,284.744934 260.766998,284.744934 273.850952,284.744934 
	C273.850952,274.106964 273.850952,263.717957 273.850952,252.974136 
	C278.985199,252.974136 283.632874,253.202209 288.245819,252.899902 
	C291.750732,252.670212 294.075623,253.916061 296.404999,256.465088 
	C304.380127,265.192291 312.504913,273.790192 320.821838,282.190704 
	C322.338318,283.722382 325.012543,284.846741 327.173248,284.882172 
	C341.492432,285.117004 355.817291,285.011902 370.140289,284.988220 
	C371.333496,284.986267 372.526398,284.768951 374.230957,284.601440 
	C367.269287,277.159821 360.784821,270.229462 354.301666,263.297852 
	C347.846802,256.396484 341.393280,249.493866 334.829803,242.474823 
	C335.690552,241.898376 336.205353,241.464844 336.791016,241.174103 
	C366.099030,226.624146 379.301544,196.808640 375.695618,163.942688 
	C372.333649,133.299988 349.499725,108.450951 317.968170,102.329697 
	C303.775146,99.574402 288.848480,100.598228 274.083099,99.057716 
M190.128571,387.889893 
	C190.523712,394.009033 190.459305,400.203308 191.443665,406.226166 
	C192.421753,412.210663 196.022781,416.471405 202.442810,417.645081 
	C208.641159,418.778259 213.607925,417.060669 217.038925,411.561066 
	C217.220627,411.269806 217.759430,411.201355 218.325211,410.939850 
	C218.576096,413.082336 218.798172,414.978851 219.007401,416.765503 
	C225.486038,416.765503 231.589233,416.765503 237.923813,416.765503 
	C237.923813,394.763458 238.175125,372.996765 237.792831,351.241180 
	C237.651581,343.201904 231.021820,336.736084 222.377441,335.200348 
	C218.186554,334.455811 213.736649,334.312042 209.507446,334.797455 
	C195.533127,336.401428 189.283569,345.095795 191.655151,359.153168 
	C197.699173,359.153168 203.760406,359.153168 210.009583,359.153168 
	C210.095825,357.209625 209.729858,355.372192 210.352051,353.974701 
	C211.139603,352.205750 212.731003,350.794678 213.975693,349.229279 
	C215.369873,350.822784 217.649048,352.239685 218.008179,354.039673 
	C219.755035,362.794891 218.880310,363.991058 210.519714,366.809906 
	C208.945953,367.340515 207.385544,367.913422 205.800308,368.406799 
	C196.616943,371.264923 191.182861,377.256195 190.128571,387.889893 
M272.862915,417.634399 
	C282.689270,416.092133 289.677521,411.007507 291.705597,400.983856 
	C294.106445,389.118073 290.934723,378.860992 281.089874,371.218170 
	C276.752258,367.850830 271.986633,364.972992 267.987335,361.257202 
	C265.916992,359.333618 264.763306,356.165527 263.916168,353.343384 
	C263.667969,352.516541 265.795715,350.097534 267.014313,349.955902 
	C268.239441,349.813568 270.300537,351.315369 270.898621,352.605194 
	C271.835449,354.625458 271.849884,357.073425 272.264954,359.395721 
	C278.853760,359.395721 285.262604,359.395721 291.633331,359.395721 
	C292.895416,345.103394 286.349548,336.528351 272.748627,334.747894 
	C269.345001,334.302307 265.759583,334.480530 262.349091,334.987030 
	C248.489899,337.045441 241.686203,347.069275 244.432465,360.831757 
	C245.612549,366.745575 249.068909,371.024017 253.625702,374.635315 
	C258.320618,378.356079 263.043427,382.043579 267.671082,385.846588 
	C271.339050,388.860901 272.731842,393.006348 271.806671,397.480286 
	C271.442535,399.241089 269.230652,400.619751 267.860229,402.172455 
	C266.438171,400.683441 264.190369,399.394348 263.771149,397.662567 
	C262.972137,394.362091 263.216766,390.808960 263.016724,387.151917 
	C256.552460,387.151917 250.450012,387.151917 244.382660,387.151917 
	C240.278229,406.140656 249.976486,418.179382 268.999359,417.911438 
	C269.997314,417.897400 270.994263,417.812622 272.862915,417.634399 
M313.502197,335.166809 
	C308.217194,335.166809 302.932159,335.166809 297.467834,335.166809 
	C297.467834,340.627533 297.467834,345.503601 297.467834,351.037842 
	C303.817200,351.037842 309.823853,351.037842 316.446136,351.037842 
	C310.108856,368.015137 303.834900,384.120331 298.164642,400.435394 
	C296.431946,405.420990 296.357819,410.983002 295.468414,416.635254 
	C310.070923,416.635254 323.432343,416.635254 336.636108,416.635254 
	C336.636108,411.688599 336.636108,407.129486 336.636108,402.170685 
	C330.302490,402.170685 324.364990,402.170685 317.961975,402.170685 
	C318.625793,400.111237 319.086792,398.547272 319.631195,397.012909 
	C324.805573,382.429810 330.296661,367.948761 335.021912,353.221893 
	C336.784271,347.729187 336.767609,341.665649 337.657349,335.166962 
	C329.074371,335.166962 321.787964,335.166962 313.502197,335.166809 
M185.701263,405.006897 
	C184.795578,404.370728 183.822830,403.810059 183.000992,403.079590 
	C181.946304,402.142242 180.166382,401.078461 180.154205,400.051910 
	C179.970993,384.605621 180.027267,369.156525 180.027267,353.581390 
	C182.072632,353.345764 183.684799,353.160065 185.347717,352.968475 
	C185.347717,348.028076 185.347717,343.309082 185.347717,338.504242 
	C183.409103,338.313049 181.826859,338.156982 179.871948,337.964203 
	C179.871948,332.240662 179.871948,326.807922 179.871948,321.340820 
	C173.394714,321.340820 167.333633,321.340820 160.925064,321.340820 
	C160.925064,327.093109 160.925064,332.546539 160.925064,337.946320 
	C158.973755,338.199005 157.379120,338.405518 155.631592,338.631836 
	C155.631592,343.545685 155.631592,348.141296 155.631592,352.950134 
	C157.424988,353.165619 159.025299,353.357941 160.993256,353.594421 
	C160.993256,355.561829 160.992569,357.363464 160.993347,359.165100 
	C161.000076,374.496277 160.914047,389.828278 161.048126,405.158325 
	C161.131378,414.679230 165.167648,418.122833 175.431091,417.937714 
	C185.719391,417.752106 185.719391,417.752106 185.713974,406.403534 
	C185.713882,406.236877 185.713486,406.070251 185.701263,405.006897 
z"/>
<path fill="#020000" opacity="1.000000" stroke="none" 
	d="
M234.957016,277.965881 
	C215.092224,287.247284 194.320892,289.416992 173.072906,284.668152 
	C141.190628,277.542633 122.961205,256.635681 116.095253,225.427063 
	C114.179451,216.718918 113.285515,207.631180 113.192848,198.704407 
	C112.852188,165.885895 113.044289,133.061829 113.043182,100.239853 
	C113.043152,99.418213 113.127487,98.596581 113.193619,97.388718 
	C126.833572,97.388718 140.397644,97.388718 154.688034,97.388718 
	C154.688034,99.225075 154.683990,101.161102 154.688629,103.097115 
	C154.773239,138.416489 154.499084,173.741623 155.064575,209.053314 
	C155.475388,234.706909 172.416275,248.695801 198.045959,246.429825 
	C210.197159,245.355499 220.532822,241.667389 226.929703,230.696793 
	C231.205765,223.363449 232.889893,215.170227 232.917480,206.736847 
	C233.029785,172.416138 233.023788,138.095062 233.060959,103.774117 
	C233.063110,101.786133 233.061249,99.798157 233.061249,96.996788 
	C236.188004,96.996788 239.102448,96.996780 242.016891,96.996796 
	C251.347015,96.996826 260.678711,96.913170 270.005524,97.088715 
	C271.376587,97.114517 272.724487,98.370773 274.084290,99.955307 
	C274.144653,112.165154 274.203888,123.477409 274.186432,135.265533 
	C273.741150,161.541489 273.354462,187.341370 273.048279,213.142197 
	C273.029633,214.710556 273.649872,216.286499 273.621002,218.023285 
	C272.980927,219.134613 272.577972,220.063004 272.421143,221.031235 
	C268.440216,245.612335 256.675507,265.061249 234.957016,277.965881 
z"/>
<path fill="#FFFDFD" opacity="1.000000" stroke="none" 
	d="
M274.263123,134.789673 
	C274.203888,123.477409 274.144653,112.165154 274.170074,100.380112 
	C288.848480,100.598228 303.775146,99.574402 317.968170,102.329697 
	C349.499725,108.450951 372.333649,133.299988 375.695618,163.942688 
	C379.301544,196.808640 366.099030,226.624146 336.791016,241.174103 
	C336.205353,241.464844 335.690552,241.898376 334.829803,242.474823 
	C341.393280,249.493866 347.846802,256.396484 354.301666,263.297852 
	C360.784821,270.229462 367.269287,277.159821 374.230957,284.601440 
	C372.526398,284.768951 371.333496,284.986267 370.140289,284.988220 
	C355.817291,285.011902 341.492432,285.117004 327.173248,284.882172 
	C325.012543,284.846741 322.338318,283.722382 320.821838,282.190704 
	C312.504913,273.790192 304.380127,265.192291 296.404999,256.465088 
	C294.075623,253.916061 291.750732,252.670212 288.245819,252.899902 
	C283.632874,253.202209 278.985199,252.974136 273.850952,252.974136 
	C273.850952,263.717957 273.850952,274.106964 273.850952,284.744934 
	C260.766998,284.744934 248.191635,284.744934 235.051025,284.744934 
	C235.051025,282.730530 235.051025,280.797913 235.004028,278.415588 
	C256.675507,265.061249 268.440216,245.612335 272.421143,221.031235 
	C272.577972,220.063004 272.980927,219.134613 274.082367,218.117218 
	C281.384338,218.029327 287.879883,218.196838 294.360779,217.961945 
	C320.674103,217.008224 335.726959,202.533569 336.736084,177.380707 
	C337.767700,151.666763 321.992310,135.066742 296.225311,134.807770 
	C288.905273,134.734192 281.583862,134.792068 274.263123,134.789673 
z"/>
<path fill="#FFFCFC" opacity="1.000000" stroke="none" 
	d="
M190.168365,387.442108 
	C191.182861,377.256195 196.616943,371.264923 205.800308,368.406799 
	C207.385544,367.913422 208.945953,367.340515 210.519714,366.809906 
	C218.880310,363.991058 219.755035,362.794891 218.008179,354.039673 
	C217.649048,352.239685 215.369873,350.822784 213.975708,349.229279 
	C212.731003,350.794678 211.139603,352.205750 210.352051,353.974701 
	C209.729858,355.372192 210.095825,357.209625 210.009583,359.153168 
	C203.760406,359.153168 197.699173,359.153168 191.655151,359.153168 
	C189.283569,345.095795 195.533127,336.401428 209.507446,334.797455 
	C213.736649,334.312042 218.186554,334.455811 222.377441,335.200348 
	C231.021820,336.736084 237.651581,343.201904 237.792831,351.241180 
	C238.175125,372.996765 237.923813,394.763458 237.923813,416.765503 
	C231.589233,416.765503 225.486038,416.765503 219.007401,416.765503 
	C218.798172,414.978851 218.576096,413.082336 218.325211,410.939850 
	C217.759430,411.201355 217.220627,411.269806 217.038925,411.561066 
	C213.607925,417.060669 208.641159,418.778259 202.442810,417.645081 
	C196.022781,416.471405 192.421753,412.210663 191.443665,406.226166 
	C190.459305,400.203308 190.523712,394.009033 190.168365,387.442108 
M210.282730,381.391937 
	C210.219452,387.006836 209.868774,392.642914 210.279190,398.222961 
	C210.392883,399.768707 212.767868,401.148163 214.105377,402.603882 
	C215.419937,401.180908 217.801468,399.808136 217.871185,398.326599 
	C218.247025,390.340820 218.049072,382.328094 218.049072,374.324646 
	C217.586411,374.058594 217.123734,373.792542 216.661072,373.526459 
	C214.635422,375.889008 212.609772,378.251526 210.282730,381.391937 
z"/>
<path fill="#040000" opacity="1.000000" stroke="none" 
	d="
M272.427307,417.697601 
	C270.994263,417.812622 269.997314,417.897400 268.999359,417.911438 
	C249.976486,418.179382 240.278229,406.140656 244.382660,387.151917 
	C250.450012,387.151917 256.552460,387.151917 263.016724,387.151917 
	C263.216766,390.808960 262.972137,394.362091 263.771149,397.662567 
	C264.190369,399.394348 266.438171,400.683441 267.860229,402.172455 
	C269.230652,400.619751 271.442535,399.241089 271.806671,397.480286 
	C272.731842,393.006348 271.339050,388.860901 267.671082,385.846588 
	C263.043427,382.043579 258.320618,378.356079 253.625702,374.635315 
	C249.068909,371.024017 245.612549,366.745575 244.432465,360.831757 
	C241.686203,347.069275 248.489899,337.045441 262.349091,334.987030 
	C265.759583,334.480530 269.345001,334.302307 272.748627,334.747894 
	C286.349548,336.528351 292.895416,345.103394 291.633331,359.395721 
	C285.262604,359.395721 278.853760,359.395721 272.264954,359.395721 
	C271.849884,357.073425 271.835449,354.625458 270.898621,352.605194 
	C270.300537,351.315369 268.239441,349.813568 267.014313,349.955902 
	C265.795715,350.097534 263.667969,352.516541 263.916168,353.343384 
	C264.763306,356.165527 265.916992,359.333618 267.987335,361.257202 
	C271.986633,364.972992 276.752258,367.850830 281.089874,371.218170 
	C290.934723,378.860992 294.106445,389.118073 291.705597,400.983856 
	C289.677521,411.007507 282.689270,416.092133 272.427307,417.697601 
z"/>
<path fill="#050101" opacity="1.000000" stroke="none" 
	d="
M314.001862,335.166870 
	C321.787964,335.166962 329.074371,335.166962 337.657349,335.166962 
	C336.767609,341.665649 336.784271,347.729187 335.021912,353.221893 
	C330.296661,367.948761 324.805573,382.429810 319.631195,397.012909 
	C319.086792,398.547272 318.625793,400.111237 317.961975,402.170685 
	C324.364990,402.170685 330.302490,402.170685 336.636108,402.170685 
	C336.636108,407.129486 336.636108,411.688599 336.636108,416.635254 
	C323.432343,416.635254 310.070923,416.635254 295.468414,416.635254 
	C296.357819,410.983002 296.431946,405.420990 298.164642,400.435394 
	C303.834900,384.120331 310.108856,368.015137 316.446136,351.037842 
	C309.823853,351.037842 303.817200,351.037842 297.467834,351.037842 
	C297.467834,345.503601 297.467834,340.627533 297.467834,335.166809 
	C302.932159,335.166809 308.217194,335.166809 314.001862,335.166870 
z"/>
<path fill="#FFFCFC" opacity="1.000000" stroke="none" 
	d="
M185.707245,405.455261 
	C185.713486,406.070251 185.713882,406.236877 185.713974,406.403534 
	C185.719391,417.752106 185.719391,417.752106 175.431091,417.937714 
	C165.167648,418.122833 161.131378,414.679230 161.048126,405.158325 
	C160.914047,389.828278 161.000076,374.496277 160.993347,359.165100 
	C160.992569,357.363464 160.993256,355.561829 160.993256,353.594421 
	C159.025299,353.357941 157.424988,353.165619 155.631592,352.950134 
	C155.631592,348.141296 155.631592,343.545685 155.631592,338.631836 
	C157.379120,338.405518 158.973755,338.199005 160.925064,337.946320 
	C160.925064,332.546539 160.925064,327.093109 160.925064,321.340820 
	C167.333633,321.340820 173.394714,321.340820 179.871948,321.340820 
	C179.871948,326.807922 179.871948,332.240662 179.871948,337.964203 
	C181.826859,338.156982 183.409103,338.313049 185.347717,338.504242 
	C185.347717,343.309082 185.347717,348.028076 185.347717,352.968475 
	C183.684799,353.160065 182.072632,353.345764 180.027267,353.581390 
	C180.027267,369.156525 179.970993,384.605621 180.154205,400.051910 
	C180.166382,401.078461 181.946304,402.142242 183.000992,403.079590 
	C183.822830,403.810059 184.795578,404.370728 185.707245,405.455261 
z"/>
<path fill="#E11A1A" opacity="1.000000" stroke="none" 
	d="
M274.186401,135.265533 
	C281.583862,134.792068 288.905273,134.734192 296.225311,134.807770 
	C321.992310,135.066742 337.767700,151.666763 336.736084,177.380707 
	C335.726959,202.533569 320.674103,217.008224 294.360779,217.961945 
	C287.879883,218.196838 281.384338,218.029327 274.434174,217.952850 
	C273.649872,216.286499 273.029633,214.710556 273.048279,213.142197 
	C273.354462,187.341370 273.741150,161.541489 274.186401,135.265533 
z"/>
<path fill="#E21E1E" opacity="1.000000" stroke="none" 
	d="
M210.433426,381.002991 
	C212.609772,378.251526 214.635422,375.889008 216.661072,373.526459 
	C217.123734,373.792542 217.586411,374.058594 218.049072,374.324646 
	C218.049072,382.328094 218.247025,390.340820 217.871185,398.326599 
	C217.801468,399.808136 215.419937,401.180908 214.105362,402.603882 
	C212.767868,401.148163 210.392883,399.768707 210.279190,398.222961 
	C209.868774,392.642914 210.219452,387.006836 210.433426,381.002991 
z"/>
</svg>